<svg xmlns="http://www.w3.org/2000/svg" xmlns:xlink="http://www.w3.org/1999/xlink" width="435" zoomAndPan="magnify" viewBox="0 0 326.25 349.500003" height="466" preserveAspectRatio="xMidYMid meet" version="1.0"><defs><g/><clipPath id="de81bd8eed"><rect x="0" width="51" y="0" height="85"/></clipPath><clipPath id="9983b364e2"><rect x="0" width="52" y="0" height="84"/></clipPath></defs><g fill="#ffffff" fill-opacity="1"><g transform="translate(71.153412, 238.62897)"><g><path d="M 169.066406 -14.78125 L 148.011719 -127.558594 C 146.390625 -136.265625 154.894531 -136.875 154.894531 -140.925781 L 154.894531 -141.53125 C 154.894531 -142.949219 153.476562 -143.757812 151.859375 -143.757812 L 137.480469 -143.757812 C 133.636719 -143.757812 131.40625 -141.9375 130.191406 -138.695312 L 89.496094 -24.09375 L 50.011719 -138.496094 C 48.796875 -141.9375 45.960938 -143.757812 42.113281 -143.757812 L 28.75 -143.757812 C 26.523438 -143.757812 25.308594 -142.746094 25.308594 -141.125 L 25.308594 -140.722656 C 25.308594 -136.46875 33.207031 -136.265625 31.992188 -129.179688 L 12.351562 -14.78125 C 10.933594 -7.085938 4.253906 -6.683594 4.253906 -2.835938 L 4.253906 -2.429688 C 4.253906 -0.808594 5.871094 0 8.300781 0 L 26.726562 0 C 29.15625 0 30.777344 -0.808594 30.777344 -2.429688 L 30.777344 -2.835938 C 30.777344 -6.683594 21.664062 -7.085938 23.082031 -14.78125 L 40.496094 -118.246094 L 81.597656 -4.253906 C 82.8125 -1.417969 84.433594 -0.203125 87.066406 -0.203125 C 89.898438 -0.203125 91.113281 -1.621094 92.328125 -4.453125 L 133.027344 -115.816406 L 150.84375 -14.78125 C 152.464844 -6.882812 144.164062 -6.683594 144.164062 -2.835938 L 144.164062 -2.429688 C 144.164062 -0.808594 145.785156 0 148.214844 0 L 173.117188 0 C 175.75 0 177.371094 -0.808594 177.371094 -2.429688 L 177.371094 -2.835938 C 177.371094 -6.683594 170.6875 -6.882812 169.066406 -14.78125 Z M 169.066406 -14.78125 "/></g></g></g><g fill="#ffffff" fill-opacity="1"><g transform="translate(32.146125, 203.833964)"><g><path d="M 27.1875 -64.5625 C 31.695312 -64.5625 35.492188 -63.617188 38.578125 -61.734375 C 41.660156 -59.859375 43.785156 -57.164062 44.953125 -53.65625 L 45.140625 -53.65625 L 45.234375 -56.515625 C 45.234375 -57.128906 45.171875 -57.851562 45.046875 -58.6875 C 44.921875 -59.519531 44.859375 -60.242188 44.859375 -60.859375 C 44.859375 -61.597656 44.992188 -62.164062 45.265625 -62.5625 C 45.546875 -62.96875 45.84375 -63.171875 46.15625 -63.171875 C 47.019531 -63.171875 47.453125 -62.398438 47.453125 -60.859375 C 47.453125 -60.742188 47.421875 -60.144531 47.359375 -59.0625 C 47.296875 -57.976562 47.21875 -56.789062 47.125 -55.5 C 47.03125 -54.207031 46.953125 -52.957031 46.890625 -51.75 C 46.835938 -50.550781 46.8125 -49.734375 46.8125 -49.296875 C 46.8125 -48.804688 46.835938 -48.097656 46.890625 -47.171875 C 46.953125 -46.242188 47.03125 -45.316406 47.125 -44.390625 C 47.21875 -43.472656 47.296875 -42.628906 47.359375 -41.859375 C 47.421875 -41.085938 47.453125 -40.609375 47.453125 -40.421875 C 47.453125 -39.804688 47.296875 -39.328125 46.984375 -38.984375 C 46.679688 -38.648438 46.34375 -38.484375 45.96875 -38.484375 C 45.664062 -38.484375 45.375 -38.632812 45.09375 -38.9375 C 44.8125 -39.25 44.671875 -39.742188 44.671875 -40.421875 C 44.671875 -41.097656 44.71875 -41.710938 44.8125 -42.265625 C 44.90625 -42.828125 44.953125 -43.507812 44.953125 -44.3125 C 44.953125 -50.101562 43.410156 -54.570312 40.328125 -57.71875 C 37.242188 -60.863281 32.894531 -62.4375 27.28125 -62.4375 C 24.382812 -62.4375 21.859375 -62.003906 19.703125 -61.140625 C 17.546875 -60.273438 15.726562 -59.132812 14.25 -57.71875 C 12.769531 -56.300781 11.660156 -54.648438 10.921875 -52.765625 C 10.179688 -50.890625 9.8125 -48.90625 9.8125 -46.8125 C 9.8125 -44.957031 10.148438 -43.257812 10.828125 -41.71875 C 11.503906 -40.175781 12.613281 -38.800781 14.15625 -37.59375 C 15.695312 -36.394531 17.726562 -35.425781 20.25 -34.6875 C 22.78125 -33.945312 25.894531 -33.453125 29.59375 -33.203125 C 33.601562 -32.960938 36.929688 -32.410156 39.578125 -31.546875 C 42.234375 -30.679688 44.347656 -29.550781 45.921875 -28.15625 C 47.492188 -26.769531 48.601562 -25.117188 49.25 -23.203125 C 49.90625 -21.296875 50.234375 -19.144531 50.234375 -16.75 C 50.234375 -14.40625 49.800781 -12.101562 48.9375 -9.84375 C 48.070312 -7.59375 46.757812 -5.585938 45 -3.828125 C 43.238281 -2.078125 41.015625 -0.664062 38.328125 0.40625 C 35.648438 1.488281 32.492188 2.03125 28.859375 2.03125 C 24.046875 2.03125 19.910156 1.242188 16.453125 -0.328125 C 13.003906 -1.898438 10.140625 -4.628906 7.859375 -8.515625 L 7.671875 -8.515625 C 7.859375 -6.972656 8.015625 -5.566406 8.140625 -4.296875 C 8.265625 -3.035156 8.328125 -2.128906 8.328125 -1.578125 C 8.328125 -0.148438 7.832031 0.5625 6.84375 0.5625 C 6.414062 0.5625 6.0625 0.300781 5.78125 -0.21875 C 5.5 -0.75 5.359375 -1.351562 5.359375 -2.03125 C 5.359375 -2.59375 5.390625 -3.378906 5.453125 -4.390625 C 5.515625 -5.410156 5.59375 -6.488281 5.6875 -7.625 C 5.78125 -8.769531 5.859375 -9.863281 5.921875 -10.90625 C 5.984375 -11.957031 6.015625 -12.757812 6.015625 -13.3125 C 6.015625 -13.9375 5.984375 -14.785156 5.921875 -15.859375 C 5.859375 -16.941406 5.78125 -18.050781 5.6875 -19.1875 C 5.59375 -20.332031 5.515625 -21.394531 5.453125 -22.375 C 5.390625 -23.363281 5.359375 -24.046875 5.359375 -24.421875 C 5.359375 -24.910156 5.46875 -25.351562 5.6875 -25.75 C 5.90625 -26.15625 6.257812 -26.359375 6.75 -26.359375 C 7.613281 -26.359375 8.046875 -25.835938 8.046875 -24.796875 C 8.046875 -24.171875 8 -23.347656 7.90625 -22.328125 C 7.8125 -21.316406 7.765625 -20.316406 7.765625 -19.328125 C 7.765625 -13.035156 9.566406 -8.253906 13.171875 -4.984375 C 16.785156 -1.722656 21.738281 -0.09375 28.03125 -0.09375 C 31.175781 -0.09375 33.945312 -0.523438 36.34375 -1.390625 C 38.75 -2.253906 40.753906 -3.457031 42.359375 -5 C 43.960938 -6.539062 45.179688 -8.328125 46.015625 -10.359375 C 46.847656 -12.390625 47.265625 -14.609375 47.265625 -17.015625 C 47.265625 -21.335938 45.921875 -24.609375 43.234375 -26.828125 C 40.554688 -29.046875 36.226562 -30.335938 30.25 -30.703125 C 26.050781 -30.953125 22.472656 -31.492188 19.515625 -32.328125 C 16.554688 -33.160156 14.132812 -34.238281 12.25 -35.5625 C 10.375 -36.894531 9.003906 -38.5 8.140625 -40.375 C 7.273438 -42.257812 6.84375 -44.375 6.84375 -46.71875 C 6.84375 -49.175781 7.335938 -51.484375 8.328125 -53.640625 C 9.316406 -55.804688 10.6875 -57.691406 12.4375 -59.296875 C 14.195312 -60.898438 16.320312 -62.175781 18.8125 -63.125 C 21.3125 -64.082031 24.101562 -64.5625 27.1875 -64.5625 Z M 27.1875 -64.5625 "/></g></g></g><g transform="matrix(1, 0, 0, 1, 94, 171)"><g clip-path="url(#de81bd8eed)"><g fill="#ffffff" fill-opacity="1"><g transform="translate(0.431294, 54.250109)"><g><path d="M 25.125 -36.359375 C 28.5625 -36.359375 31.75 -35.507812 34.6875 -33.8125 C 37.625 -32.125 39.9375 -29.847656 41.625 -26.984375 C 43.320312 -24.128906 44.171875 -20.984375 44.171875 -17.546875 C 44.171875 -14.109375 43.320312 -10.945312 41.625 -8.0625 C 39.9375 -5.1875 37.625 -2.898438 34.6875 -1.203125 C 31.75 0.484375 28.5625 1.328125 25.125 1.328125 C 21.6875 1.328125 18.507812 0.484375 15.59375 -1.203125 C 12.6875 -2.898438 10.375 -5.1875 8.65625 -8.0625 C 6.9375 -10.945312 6.078125 -14.109375 6.078125 -17.546875 C 6.078125 -20.929688 6.9375 -24.066406 8.65625 -26.953125 C 10.375 -29.835938 12.6875 -32.125 15.59375 -33.8125 C 18.507812 -35.507812 21.6875 -36.359375 25.125 -36.359375 Z M 9.484375 -17.546875 C 9.484375 -14.722656 10.1875 -12.128906 11.59375 -9.765625 C 13.007812 -7.410156 14.910156 -5.539062 17.296875 -4.15625 C 19.679688 -2.769531 22.289062 -2.078125 25.125 -2.078125 C 27.945312 -2.078125 30.550781 -2.769531 32.9375 -4.15625 C 35.320312 -5.539062 37.222656 -7.410156 38.640625 -9.765625 C 40.054688 -12.128906 40.765625 -14.722656 40.765625 -17.546875 C 40.765625 -20.265625 40.082031 -22.800781 38.71875 -25.15625 C 37.363281 -27.519531 35.492188 -29.40625 33.109375 -30.8125 C 30.722656 -32.226562 28.085938 -32.9375 25.203125 -32.9375 C 22.316406 -32.9375 19.664062 -32.242188 17.25 -30.859375 C 14.84375 -29.472656 12.945312 -27.601562 11.5625 -25.25 C 10.175781 -22.894531 9.484375 -20.328125 9.484375 -17.546875 Z M 9.484375 -17.546875 "/></g></g></g></g></g><g transform="matrix(1, 0, 0, 1, 171, 172)"><g clip-path="url(#9983b364e2)"><g fill="#ffffff" fill-opacity="1"><g transform="translate(1.030049, 53.998389)"><g><path d="M 25.125 -36.359375 C 28.5625 -36.359375 31.75 -35.507812 34.6875 -33.8125 C 37.625 -32.125 39.9375 -29.847656 41.625 -26.984375 C 43.320312 -24.128906 44.171875 -20.984375 44.171875 -17.546875 C 44.171875 -14.109375 43.320312 -10.945312 41.625 -8.0625 C 39.9375 -5.1875 37.625 -2.898438 34.6875 -1.203125 C 31.75 0.484375 28.5625 1.328125 25.125 1.328125 C 21.6875 1.328125 18.507812 0.484375 15.59375 -1.203125 C 12.6875 -2.898438 10.375 -5.1875 8.65625 -8.0625 C 6.9375 -10.945312 6.078125 -14.109375 6.078125 -17.546875 C 6.078125 -20.929688 6.9375 -24.066406 8.65625 -26.953125 C 10.375 -29.835938 12.6875 -32.125 15.59375 -33.8125 C 18.507812 -35.507812 21.6875 -36.359375 25.125 -36.359375 Z M 9.484375 -17.546875 C 9.484375 -14.722656 10.1875 -12.128906 11.59375 -9.765625 C 13.007812 -7.410156 14.910156 -5.539062 17.296875 -4.15625 C 19.679688 -2.769531 22.289062 -2.078125 25.125 -2.078125 C 27.945312 -2.078125 30.550781 -2.769531 32.9375 -4.15625 C 35.320312 -5.539062 37.222656 -7.410156 38.640625 -9.765625 C 40.054688 -12.128906 40.765625 -14.722656 40.765625 -17.546875 C 40.765625 -20.265625 40.082031 -22.800781 38.71875 -25.15625 C 37.363281 -27.519531 35.492188 -29.40625 33.109375 -30.8125 C 30.722656 -32.226562 28.085938 -32.9375 25.203125 -32.9375 C 22.316406 -32.9375 19.664062 -32.242188 17.25 -30.859375 C 14.84375 -29.472656 12.945312 -27.601562 11.5625 -25.25 C 10.175781 -22.894531 9.484375 -20.328125 9.484375 -17.546875 Z M 9.484375 -17.546875 "/></g></g></g></g></g><g fill="#ffffff" fill-opacity="1"><g transform="translate(237.710409, 203.833964)"><g><path d="M 27.1875 -64.5625 C 31.695312 -64.5625 35.492188 -63.617188 38.578125 -61.734375 C 41.660156 -59.859375 43.785156 -57.164062 44.953125 -53.65625 L 45.140625 -53.65625 L 45.234375 -56.515625 C 45.234375 -57.128906 45.171875 -57.851562 45.046875 -58.6875 C 44.921875 -59.519531 44.859375 -60.242188 44.859375 -60.859375 C 44.859375 -61.597656 44.992188 -62.164062 45.265625 -62.5625 C 45.546875 -62.96875 45.84375 -63.171875 46.15625 -63.171875 C 47.019531 -63.171875 47.453125 -62.398438 47.453125 -60.859375 C 47.453125 -60.742188 47.421875 -60.144531 47.359375 -59.0625 C 47.296875 -57.976562 47.21875 -56.789062 47.125 -55.5 C 47.03125 -54.207031 46.953125 -52.957031 46.890625 -51.75 C 46.835938 -50.550781 46.8125 -49.734375 46.8125 -49.296875 C 46.8125 -48.804688 46.835938 -48.097656 46.890625 -47.171875 C 46.953125 -46.242188 47.03125 -45.316406 47.125 -44.390625 C 47.21875 -43.472656 47.296875 -42.628906 47.359375 -41.859375 C 47.421875 -41.085938 47.453125 -40.609375 47.453125 -40.421875 C 47.453125 -39.804688 47.296875 -39.328125 46.984375 -38.984375 C 46.679688 -38.648438 46.34375 -38.484375 45.96875 -38.484375 C 45.664062 -38.484375 45.375 -38.632812 45.09375 -38.9375 C 44.8125 -39.25 44.671875 -39.742188 44.671875 -40.421875 C 44.671875 -41.097656 44.71875 -41.710938 44.8125 -42.265625 C 44.90625 -42.828125 44.953125 -43.507812 44.953125 -44.3125 C 44.953125 -50.101562 43.410156 -54.570312 40.328125 -57.71875 C 37.242188 -60.863281 32.894531 -62.4375 27.28125 -62.4375 C 24.382812 -62.4375 21.859375 -62.003906 19.703125 -61.140625 C 17.546875 -60.273438 15.726562 -59.132812 14.25 -57.71875 C 12.769531 -56.300781 11.660156 -54.648438 10.921875 -52.765625 C 10.179688 -50.890625 9.8125 -48.90625 9.8125 -46.8125 C 9.8125 -44.957031 10.148438 -43.257812 10.828125 -41.71875 C 11.503906 -40.175781 12.613281 -38.800781 14.15625 -37.59375 C 15.695312 -36.394531 17.726562 -35.425781 20.25 -34.6875 C 22.78125 -33.945312 25.894531 -33.453125 29.59375 -33.203125 C 33.601562 -32.960938 36.929688 -32.410156 39.578125 -31.546875 C 42.234375 -30.679688 44.347656 -29.550781 45.921875 -28.15625 C 47.492188 -26.769531 48.601562 -25.117188 49.25 -23.203125 C 49.90625 -21.296875 50.234375 -19.144531 50.234375 -16.75 C 50.234375 -14.40625 49.800781 -12.101562 48.9375 -9.84375 C 48.070312 -7.59375 46.757812 -5.585938 45 -3.828125 C 43.238281 -2.078125 41.015625 -0.664062 38.328125 0.40625 C 35.648438 1.488281 32.492188 2.03125 28.859375 2.03125 C 24.046875 2.03125 19.910156 1.242188 16.453125 -0.328125 C 13.003906 -1.898438 10.140625 -4.628906 7.859375 -8.515625 L 7.671875 -8.515625 C 7.859375 -6.972656 8.015625 -5.566406 8.140625 -4.296875 C 8.265625 -3.035156 8.328125 -2.128906 8.328125 -1.578125 C 8.328125 -0.148438 7.832031 0.5625 6.84375 0.5625 C 6.414062 0.5625 6.0625 0.300781 5.78125 -0.21875 C 5.5 -0.75 5.359375 -1.351562 5.359375 -2.03125 C 5.359375 -2.59375 5.390625 -3.378906 5.453125 -4.390625 C 5.515625 -5.410156 5.59375 -6.488281 5.6875 -7.625 C 5.78125 -8.769531 5.859375 -9.863281 5.921875 -10.90625 C 5.984375 -11.957031 6.015625 -12.757812 6.015625 -13.3125 C 6.015625 -13.9375 5.984375 -14.785156 5.921875 -15.859375 C 5.859375 -16.941406 5.78125 -18.050781 5.6875 -19.1875 C 5.59375 -20.332031 5.515625 -21.394531 5.453125 -22.375 C 5.390625 -23.363281 5.359375 -24.046875 5.359375 -24.421875 C 5.359375 -24.910156 5.46875 -25.351562 5.6875 -25.75 C 5.90625 -26.15625 6.257812 -26.359375 6.75 -26.359375 C 7.613281 -26.359375 8.046875 -25.835938 8.046875 -24.796875 C 8.046875 -24.171875 8 -23.347656 7.90625 -22.328125 C 7.8125 -21.316406 7.765625 -20.316406 7.765625 -19.328125 C 7.765625 -13.035156 9.566406 -8.253906 13.171875 -4.984375 C 16.785156 -1.722656 21.738281 -0.09375 28.03125 -0.09375 C 31.175781 -0.09375 33.945312 -0.523438 36.34375 -1.390625 C 38.75 -2.253906 40.753906 -3.457031 42.359375 -5 C 43.960938 -6.539062 45.179688 -8.328125 46.015625 -10.359375 C 46.847656 -12.390625 47.265625 -14.609375 47.265625 -17.015625 C 47.265625 -21.335938 45.921875 -24.609375 43.234375 -26.828125 C 40.554688 -29.046875 36.226562 -30.335938 30.25 -30.703125 C 26.050781 -30.953125 22.472656 -31.492188 19.515625 -32.328125 C 16.554688 -33.160156 14.132812 -34.238281 12.25 -35.5625 C 10.375 -36.894531 9.003906 -38.5 8.140625 -40.375 C 7.273438 -42.257812 6.84375 -44.375 6.84375 -46.71875 C 6.84375 -49.175781 7.335938 -51.484375 8.328125 -53.640625 C 9.316406 -55.804688 10.6875 -57.691406 12.4375 -59.296875 C 14.195312 -60.898438 16.320312 -62.175781 18.8125 -63.125 C 21.3125 -64.082031 24.101562 -64.5625 27.1875 -64.5625 Z M 27.1875 -64.5625 "/></g></g></g></svg>