<svg xmlns="http://www.w3.org/2000/svg" xmlns:xlink="http://www.w3.org/1999/xlink" width="500" zoomAndPan="magnify" viewBox="0 0 375 374.999991" height="500" preserveAspectRatio="xMidYMid meet" version="1.0"><defs><g/><clipPath id="616f66e3e4"><rect x="0" width="51" y="0" height="85"/></clipPath><clipPath id="694a7c442a"><rect x="0" width="52" y="0" height="85"/></clipPath></defs><rect x="-37.5" width="450" fill="#ffffff" y="-37.499999" height="449.999989" fill-opacity="1"/><rect x="-37.5" width="450" fill="#000000" y="-37.499999" height="449.999989" fill-opacity="1"/><g fill="#ffffff" fill-opacity="1"><g transform="translate(95.71603, 251.999983)"><g><path d="M 169.457031 -14.816406 L 148.351562 -127.855469 C 146.726562 -136.582031 155.25 -137.1875 155.25 -141.246094 L 155.25 -141.855469 C 155.25 -143.277344 153.832031 -144.089844 152.207031 -144.089844 L 137.796875 -144.089844 C 133.941406 -144.089844 131.710938 -142.261719 130.492188 -139.015625 L 89.699219 -24.148438 L 50.125 -138.8125 C 48.910156 -142.261719 46.066406 -144.089844 42.210938 -144.089844 L 28.816406 -144.089844 C 26.585938 -144.089844 25.367188 -143.074219 25.367188 -141.449219 L 25.367188 -141.046875 C 25.367188 -136.785156 33.28125 -136.582031 32.066406 -129.476562 L 12.378906 -14.816406 C 10.957031 -7.101562 4.261719 -6.695312 4.261719 -2.839844 L 4.261719 -2.433594 C 4.261719 -0.8125 5.886719 0 8.320312 0 L 26.789062 0 C 29.222656 0 30.847656 -0.8125 30.847656 -2.433594 L 30.847656 -2.839844 C 30.847656 -6.695312 21.714844 -7.101562 23.136719 -14.816406 L 40.589844 -118.519531 L 81.785156 -4.261719 C 83.003906 -1.421875 84.628906 -0.203125 87.265625 -0.203125 C 90.105469 -0.203125 91.324219 -1.625 92.542969 -4.464844 L 133.332031 -116.082031 L 151.191406 -14.816406 C 152.816406 -6.898438 144.496094 -6.695312 144.496094 -2.839844 L 144.496094 -2.433594 C 144.496094 -0.8125 146.117188 0 148.554688 0 L 173.515625 0 C 176.152344 0 177.777344 -0.8125 177.777344 -2.433594 L 177.777344 -2.839844 C 177.777344 -6.695312 171.082031 -6.898438 169.457031 -14.816406 Z M 169.457031 -14.816406 "/></g></g></g><g fill="#ffffff" fill-opacity="1"><g transform="translate(56.619073, 217.124986)"><g><path d="M 27.265625 -64.71875 C 31.773438 -64.71875 35.570312 -63.773438 38.65625 -61.890625 C 41.75 -60.003906 43.882812 -57.300781 45.0625 -53.78125 L 45.25 -53.78125 L 45.34375 -56.65625 C 45.34375 -57.269531 45.28125 -57.992188 45.15625 -58.828125 C 45.03125 -59.660156 44.96875 -60.390625 44.96875 -61.015625 C 44.96875 -61.753906 45.101562 -62.320312 45.375 -62.71875 C 45.65625 -63.125 45.953125 -63.328125 46.265625 -63.328125 C 47.128906 -63.328125 47.5625 -62.554688 47.5625 -61.015625 C 47.5625 -60.890625 47.53125 -60.285156 47.46875 -59.203125 C 47.40625 -58.117188 47.328125 -56.925781 47.234375 -55.625 C 47.140625 -54.332031 47.0625 -53.082031 47 -51.875 C 46.945312 -50.664062 46.921875 -49.847656 46.921875 -49.421875 C 46.921875 -48.921875 46.945312 -48.207031 47 -47.28125 C 47.0625 -46.351562 47.140625 -45.425781 47.234375 -44.5 C 47.328125 -43.570312 47.40625 -42.722656 47.46875 -41.953125 C 47.53125 -41.179688 47.5625 -40.703125 47.5625 -40.515625 C 47.5625 -39.898438 47.40625 -39.421875 47.09375 -39.078125 C 46.789062 -38.742188 46.453125 -38.578125 46.078125 -38.578125 C 45.773438 -38.578125 45.484375 -38.726562 45.203125 -39.03125 C 44.921875 -39.34375 44.78125 -39.835938 44.78125 -40.515625 C 44.78125 -41.191406 44.828125 -41.804688 44.921875 -42.359375 C 45.015625 -42.921875 45.0625 -43.601562 45.0625 -44.40625 C 45.0625 -50.21875 43.515625 -54.695312 40.421875 -57.84375 C 37.335938 -61 32.984375 -62.578125 27.359375 -62.578125 C 24.453125 -62.578125 21.914062 -62.144531 19.75 -61.28125 C 17.582031 -60.414062 15.753906 -59.269531 14.265625 -57.84375 C 12.785156 -56.425781 11.675781 -54.773438 10.9375 -52.890625 C 10.195312 -51.003906 9.828125 -49.015625 9.828125 -46.921875 C 9.828125 -45.066406 10.164062 -43.363281 10.84375 -41.8125 C 11.53125 -40.269531 12.644531 -38.894531 14.1875 -37.6875 C 15.726562 -36.476562 17.765625 -35.503906 20.296875 -34.765625 C 22.835938 -34.023438 25.960938 -33.53125 29.671875 -33.28125 C 33.691406 -33.039062 37.03125 -32.484375 39.6875 -31.609375 C 42.34375 -30.742188 44.457031 -29.613281 46.03125 -28.21875 C 47.613281 -26.832031 48.726562 -25.179688 49.375 -23.265625 C 50.019531 -21.347656 50.34375 -19.1875 50.34375 -16.78125 C 50.34375 -14.4375 49.910156 -12.132812 49.046875 -9.875 C 48.179688 -7.613281 46.867188 -5.601562 45.109375 -3.84375 C 43.347656 -2.082031 41.125 -0.660156 38.4375 0.421875 C 35.75 1.503906 32.578125 2.046875 28.921875 2.046875 C 24.109375 2.046875 19.96875 1.257812 16.5 -0.3125 C 13.039062 -1.894531 10.164062 -4.632812 7.875 -8.53125 L 7.703125 -8.53125 C 7.878906 -6.988281 8.03125 -5.582031 8.15625 -4.3125 C 8.28125 -3.039062 8.34375 -2.128906 8.34375 -1.578125 C 8.34375 -0.148438 7.847656 0.5625 6.859375 0.5625 C 6.429688 0.5625 6.078125 0.300781 5.796875 -0.21875 C 5.515625 -0.75 5.375 -1.359375 5.375 -2.046875 C 5.375 -2.597656 5.40625 -3.382812 5.46875 -4.40625 C 5.53125 -5.425781 5.609375 -6.503906 5.703125 -7.640625 C 5.796875 -8.785156 5.875 -9.882812 5.9375 -10.9375 C 6 -11.988281 6.03125 -12.789062 6.03125 -13.34375 C 6.03125 -13.96875 6 -14.820312 5.9375 -15.90625 C 5.875 -16.988281 5.796875 -18.097656 5.703125 -19.234375 C 5.609375 -20.378906 5.53125 -21.445312 5.46875 -22.4375 C 5.40625 -23.425781 5.375 -24.109375 5.375 -24.484375 C 5.375 -24.972656 5.484375 -25.414062 5.703125 -25.8125 C 5.921875 -26.21875 6.273438 -26.421875 6.765625 -26.421875 C 7.628906 -26.421875 8.0625 -25.894531 8.0625 -24.84375 C 8.0625 -24.226562 8.015625 -23.410156 7.921875 -22.390625 C 7.828125 -21.367188 7.78125 -20.363281 7.78125 -19.375 C 7.78125 -13.070312 9.585938 -8.28125 13.203125 -5 C 16.828125 -1.726562 21.789062 -0.09375 28.09375 -0.09375 C 31.25 -0.09375 34.03125 -0.523438 36.4375 -1.390625 C 38.84375 -2.253906 40.847656 -3.457031 42.453125 -5 C 44.066406 -6.550781 45.289062 -8.34375 46.125 -10.375 C 46.957031 -12.414062 47.375 -14.644531 47.375 -17.0625 C 47.375 -21.382812 46.03125 -24.65625 43.34375 -26.875 C 40.65625 -29.101562 36.3125 -30.40625 30.3125 -30.78125 C 26.113281 -31.03125 22.53125 -31.570312 19.5625 -32.40625 C 16.59375 -33.238281 14.164062 -34.316406 12.28125 -35.640625 C 10.394531 -36.972656 9.019531 -38.582031 8.15625 -40.46875 C 7.289062 -42.351562 6.859375 -44.472656 6.859375 -46.828125 C 6.859375 -49.296875 7.351562 -51.609375 8.34375 -53.765625 C 9.332031 -55.929688 10.707031 -57.816406 12.46875 -59.421875 C 14.226562 -61.035156 16.359375 -62.320312 18.859375 -63.28125 C 21.367188 -64.238281 24.171875 -64.71875 27.265625 -64.71875 Z M 27.265625 -64.71875 "/></g></g></g><g transform="matrix(1, 0, 0, 1, 119, 184)"><g clip-path="url(#616f66e3e4)"><g fill="#ffffff" fill-opacity="1"><g transform="translate(0.0474234, 54.590363)"><g><path d="M 25.171875 -36.4375 C 28.617188 -36.4375 31.816406 -35.585938 34.765625 -33.890625 C 37.710938 -32.191406 40.03125 -29.910156 41.71875 -27.046875 C 43.414062 -24.191406 44.265625 -21.039062 44.265625 -17.59375 C 44.265625 -14.144531 43.414062 -10.972656 41.71875 -8.078125 C 40.03125 -5.191406 37.710938 -2.898438 34.765625 -1.203125 C 31.816406 0.484375 28.617188 1.328125 25.171875 1.328125 C 21.734375 1.328125 18.550781 0.484375 15.625 -1.203125 C 12.707031 -2.898438 10.390625 -5.191406 8.671875 -8.078125 C 6.953125 -10.972656 6.09375 -14.144531 6.09375 -17.59375 C 6.09375 -20.976562 6.953125 -24.113281 8.671875 -27 C 10.390625 -29.894531 12.707031 -32.191406 15.625 -33.890625 C 18.550781 -35.585938 21.734375 -36.4375 25.171875 -36.4375 Z M 9.5 -17.59375 C 9.5 -14.757812 10.207031 -12.160156 11.625 -9.796875 C 13.039062 -7.429688 14.941406 -5.550781 17.328125 -4.15625 C 19.722656 -2.769531 22.335938 -2.078125 25.171875 -2.078125 C 28.015625 -2.078125 30.628906 -2.769531 33.015625 -4.15625 C 35.410156 -5.550781 37.316406 -7.429688 38.734375 -9.796875 C 40.148438 -12.160156 40.859375 -14.757812 40.859375 -17.59375 C 40.859375 -20.3125 40.175781 -22.851562 38.8125 -25.21875 C 37.445312 -27.582031 35.566406 -29.472656 33.171875 -30.890625 C 30.785156 -32.304688 28.148438 -33.015625 25.265625 -33.015625 C 22.367188 -33.015625 19.710938 -32.316406 17.296875 -30.921875 C 14.878906 -29.535156 12.972656 -27.660156 11.578125 -25.296875 C 10.191406 -22.941406 9.5 -20.375 9.5 -17.59375 Z M 9.5 -17.59375 "/></g></g></g></g></g><g transform="matrix(1, 0, 0, 1, 196, 185)"><g clip-path="url(#694a7c442a)"><g fill="#ffffff" fill-opacity="1"><g transform="translate(0.824572, 54.340363)"><g><path d="M 25.171875 -36.4375 C 28.617188 -36.4375 31.816406 -35.585938 34.765625 -33.890625 C 37.710938 -32.191406 40.03125 -29.910156 41.71875 -27.046875 C 43.414062 -24.191406 44.265625 -21.039062 44.265625 -17.59375 C 44.265625 -14.144531 43.414062 -10.972656 41.71875 -8.078125 C 40.03125 -5.191406 37.710938 -2.898438 34.765625 -1.203125 C 31.816406 0.484375 28.617188 1.328125 25.171875 1.328125 C 21.734375 1.328125 18.550781 0.484375 15.625 -1.203125 C 12.707031 -2.898438 10.390625 -5.191406 8.671875 -8.078125 C 6.953125 -10.972656 6.09375 -14.144531 6.09375 -17.59375 C 6.09375 -20.976562 6.953125 -24.113281 8.671875 -27 C 10.390625 -29.894531 12.707031 -32.191406 15.625 -33.890625 C 18.550781 -35.585938 21.734375 -36.4375 25.171875 -36.4375 Z M 9.5 -17.59375 C 9.5 -14.757812 10.207031 -12.160156 11.625 -9.796875 C 13.039062 -7.429688 14.941406 -5.550781 17.328125 -4.15625 C 19.722656 -2.769531 22.335938 -2.078125 25.171875 -2.078125 C 28.015625 -2.078125 30.628906 -2.769531 33.015625 -4.15625 C 35.410156 -5.550781 37.316406 -7.429688 38.734375 -9.796875 C 40.148438 -12.160156 40.859375 -14.757812 40.859375 -17.59375 C 40.859375 -20.3125 40.175781 -22.851562 38.8125 -25.21875 C 37.445312 -27.582031 35.566406 -29.472656 33.171875 -30.890625 C 30.785156 -32.304688 28.148438 -33.015625 25.265625 -33.015625 C 22.367188 -33.015625 19.710938 -32.316406 17.296875 -30.921875 C 14.878906 -29.535156 12.972656 -27.660156 11.578125 -25.296875 C 10.191406 -22.941406 9.5 -20.375 9.5 -17.59375 Z M 9.5 -17.59375 "/></g></g></g></g></g><g fill="#ffffff" fill-opacity="1"><g transform="translate(262.655934, 217.124986)"><g><path d="M 27.265625 -64.71875 C 31.773438 -64.71875 35.570312 -63.773438 38.65625 -61.890625 C 41.75 -60.003906 43.882812 -57.300781 45.0625 -53.78125 L 45.25 -53.78125 L 45.34375 -56.65625 C 45.34375 -57.269531 45.28125 -57.992188 45.15625 -58.828125 C 45.03125 -59.660156 44.96875 -60.390625 44.96875 -61.015625 C 44.96875 -61.753906 45.101562 -62.320312 45.375 -62.71875 C 45.65625 -63.125 45.953125 -63.328125 46.265625 -63.328125 C 47.128906 -63.328125 47.5625 -62.554688 47.5625 -61.015625 C 47.5625 -60.890625 47.53125 -60.285156 47.46875 -59.203125 C 47.40625 -58.117188 47.328125 -56.925781 47.234375 -55.625 C 47.140625 -54.332031 47.0625 -53.082031 47 -51.875 C 46.945312 -50.664062 46.921875 -49.847656 46.921875 -49.421875 C 46.921875 -48.921875 46.945312 -48.207031 47 -47.28125 C 47.0625 -46.351562 47.140625 -45.425781 47.234375 -44.5 C 47.328125 -43.570312 47.40625 -42.722656 47.46875 -41.953125 C 47.53125 -41.179688 47.5625 -40.703125 47.5625 -40.515625 C 47.5625 -39.898438 47.40625 -39.421875 47.09375 -39.078125 C 46.789062 -38.742188 46.453125 -38.578125 46.078125 -38.578125 C 45.773438 -38.578125 45.484375 -38.726562 45.203125 -39.03125 C 44.921875 -39.34375 44.78125 -39.835938 44.78125 -40.515625 C 44.78125 -41.191406 44.828125 -41.804688 44.921875 -42.359375 C 45.015625 -42.921875 45.0625 -43.601562 45.0625 -44.40625 C 45.0625 -50.21875 43.515625 -54.695312 40.421875 -57.84375 C 37.335938 -61 32.984375 -62.578125 27.359375 -62.578125 C 24.453125 -62.578125 21.914062 -62.144531 19.75 -61.28125 C 17.582031 -60.414062 15.753906 -59.269531 14.265625 -57.84375 C 12.785156 -56.425781 11.675781 -54.773438 10.9375 -52.890625 C 10.195312 -51.003906 9.828125 -49.015625 9.828125 -46.921875 C 9.828125 -45.066406 10.164062 -43.363281 10.84375 -41.8125 C 11.53125 -40.269531 12.644531 -38.894531 14.1875 -37.6875 C 15.726562 -36.476562 17.765625 -35.503906 20.296875 -34.765625 C 22.835938 -34.023438 25.960938 -33.53125 29.671875 -33.28125 C 33.691406 -33.039062 37.03125 -32.484375 39.6875 -31.609375 C 42.34375 -30.742188 44.457031 -29.613281 46.03125 -28.21875 C 47.613281 -26.832031 48.726562 -25.179688 49.375 -23.265625 C 50.019531 -21.347656 50.34375 -19.1875 50.34375 -16.78125 C 50.34375 -14.4375 49.910156 -12.132812 49.046875 -9.875 C 48.179688 -7.613281 46.867188 -5.601562 45.109375 -3.84375 C 43.347656 -2.082031 41.125 -0.660156 38.4375 0.421875 C 35.75 1.503906 32.578125 2.046875 28.921875 2.046875 C 24.109375 2.046875 19.96875 1.257812 16.5 -0.3125 C 13.039062 -1.894531 10.164062 -4.632812 7.875 -8.53125 L 7.703125 -8.53125 C 7.878906 -6.988281 8.03125 -5.582031 8.15625 -4.3125 C 8.28125 -3.039062 8.34375 -2.128906 8.34375 -1.578125 C 8.34375 -0.148438 7.847656 0.5625 6.859375 0.5625 C 6.429688 0.5625 6.078125 0.300781 5.796875 -0.21875 C 5.515625 -0.75 5.375 -1.359375 5.375 -2.046875 C 5.375 -2.597656 5.40625 -3.382812 5.46875 -4.40625 C 5.53125 -5.425781 5.609375 -6.503906 5.703125 -7.640625 C 5.796875 -8.785156 5.875 -9.882812 5.9375 -10.9375 C 6 -11.988281 6.03125 -12.789062 6.03125 -13.34375 C 6.03125 -13.96875 6 -14.820312 5.9375 -15.90625 C 5.875 -16.988281 5.796875 -18.097656 5.703125 -19.234375 C 5.609375 -20.378906 5.53125 -21.445312 5.46875 -22.4375 C 5.40625 -23.425781 5.375 -24.109375 5.375 -24.484375 C 5.375 -24.972656 5.484375 -25.414062 5.703125 -25.8125 C 5.921875 -26.21875 6.273438 -26.421875 6.765625 -26.421875 C 7.628906 -26.421875 8.0625 -25.894531 8.0625 -24.84375 C 8.0625 -24.226562 8.015625 -23.410156 7.921875 -22.390625 C 7.828125 -21.367188 7.78125 -20.363281 7.78125 -19.375 C 7.78125 -13.070312 9.585938 -8.28125 13.203125 -5 C 16.828125 -1.726562 21.789062 -0.09375 28.09375 -0.09375 C 31.25 -0.09375 34.03125 -0.523438 36.4375 -1.390625 C 38.84375 -2.253906 40.847656 -3.457031 42.453125 -5 C 44.066406 -6.550781 45.289062 -8.34375 46.125 -10.375 C 46.957031 -12.414062 47.375 -14.644531 47.375 -17.0625 C 47.375 -21.382812 46.03125 -24.65625 43.34375 -26.875 C 40.65625 -29.101562 36.3125 -30.40625 30.3125 -30.78125 C 26.113281 -31.03125 22.53125 -31.570312 19.5625 -32.40625 C 16.59375 -33.238281 14.164062 -34.316406 12.28125 -35.640625 C 10.394531 -36.972656 9.019531 -38.582031 8.15625 -40.46875 C 7.289062 -42.351562 6.859375 -44.472656 6.859375 -46.828125 C 6.859375 -49.296875 7.351562 -51.609375 8.34375 -53.765625 C 9.332031 -55.929688 10.707031 -57.816406 12.46875 -59.421875 C 14.226562 -61.035156 16.359375 -62.320312 18.859375 -63.28125 C 21.367188 -64.238281 24.171875 -64.71875 27.265625 -64.71875 Z M 27.265625 -64.71875 "/></g></g></g></svg>